<svg width="193" height="147" viewBox="0 0 193 147" fill="none" xmlns="http://www.w3.org/2000/svg">
<g clip-path="url(#clip0)">
<path d="M91.6571 146.893C84.9607 147.729 81.4331 143.728 81.0743 134.89C82.3897 121.992 87.4718 105.333 96.3206 84.911C91.9726 84.431 87.6013 84.1918 83.2268 84.1945C78.1316 84.1988 73.041 84.4978 67.9805 85.0902C51.9569 116.738 42.2711 134.234 38.9229 137.577L34.618 137.757C33.3483 137.371 32.1932 136.679 31.2547 135.741C30.3163 134.804 29.6233 133.651 29.237 132.382C38.2054 117.335 46.3367 102.705 53.631 88.4938C48.7444 89.6721 44.1742 91.9017 40.2396 95.0267C36.3051 98.1517 33.1011 102.097 30.8513 106.587C30.7317 107.781 30.373 108.438 29.7751 108.557C28.9945 108.441 28.2549 108.133 27.6227 107.661C33.1233 96.6744 42.2711 89.4492 55.066 85.9859C67.7391 61.5908 78.3585 36.1851 86.8141 10.0317C86.8141 9.55398 86.6945 9.31513 86.4554 9.31513C85.8575 9.31513 73.6605 24.0044 49.8643 53.3829C31.4492 72.8491 17.8172 82.5823 8.9684 82.5823C7.16679 82.4447 5.38934 82.0836 3.67704 81.5074C1.22568 80.7909 0 80.0146 0 79.1787C0 78.701 0.298947 78.4621 0.89684 78.4621C2.40813 78.67 3.86773 79.1559 5.20167 79.8952C6.07741 80.1393 6.98302 80.2599 7.89219 80.2535H9.14777C17.877 80.2535 31.0905 70.4606 48.7881 50.875C64.6921 31.5282 77.0685 15.4655 85.9173 2.68706L91.8364 1.97051C97.2175 1.97051 99.908 3.76188 99.908 7.34462C95.1248 26.572 84.7813 51.8304 68.8773 83.1197C73.7035 82.6155 78.5537 82.3763 83.4061 82.4031C88.0238 82.4231 92.636 82.7222 97.2175 83.2988C112.404 52.4872 125.378 26.0346 136.14 3.94101C137.695 1.31367 139.548 0 141.701 0L143.674 0.179135C147.022 0.179135 148.696 1.43309 148.696 3.94101C148.696 5.85181 137.456 28.9008 114.975 73.088L110.491 82.9405C121.123 82.734 131.68 81.1073 141.88 78.1038C143.195 78.3427 143.853 78.6412 143.853 78.9995C143.853 79.8355 140.415 80.8805 133.539 82.1344C125.561 83.5096 117.503 84.3772 109.414 84.7319C95.9021 113.633 89.1459 131.069 89.1459 137.04C89.3851 142.534 90.9396 144.922 93.8095 144.205C102.18 143.967 123.106 128.203 156.588 96.9132C169.383 84.0154 180.683 77.5664 190.489 77.5664L192.462 77.7456C192.622 77.8352 192.756 77.965 192.85 78.1221C192.944 78.2792 192.996 78.4581 193 78.6412L192.641 79.7161L191.565 79.1787C181.76 78.701 170.699 84.9708 158.382 97.9881C123.585 130.591 101.343 146.893 91.6571 146.893Z" fill="white"/>
</g>
<defs>
<clipPath id="clip0">
<rect width="193" height="147" fill="white"/>
</clipPath>
</defs>
</svg>
